<?xml version="1.0" encoding="UTF-8"?>
<svg version="1.1" xmlns="http://www.w3.org/2000/svg" width="79" height="68">
<path d="M0 0 C5.56725874 3.88270075 10.27252984 8.27366307 12 15 C12.78208729 21.96546494 13.14696782 29.09423589 9.390625 35.2578125 C4.82302129 40.98014748 -0.6614822 45.67332984 -8 47 C-18.31714822 47.85774886 -26.09895282 47.35125213 -34.25 40.8125 C-40.30019558 35.0719601 -42.21387743 30.37802637 -42.5 22 C-42.21387743 13.62197363 -40.30019558 8.9280399 -34.25 3.1875 C-24.96176181 -4.26350427 -10.5607551 -6.44617519 0 0 Z " fill="#6C9974" transform="translate(53,11)"/>
<path d="M0 0 C3.5 0.5 3.5 0.5 5.25 2.4375 C5.6625 3.118125 6.075 3.79875 6.5 4.5 C7.49 4.83 8.48 5.16 9.5 5.5 C9.5 6.82 9.5 8.14 9.5 9.5 C10.82 9.5 12.14 9.5 13.5 9.5 C13.35816304 11.25032844 13.21136571 13.00025534 13.0625 14.75 C12.98128906 15.72453125 12.90007813 16.6990625 12.81640625 17.703125 C12.5 20.5 12.5 20.5 11.5 24.5 C6.22 24.5 0.94 24.5 -4.5 24.5 C-4.83 23.18 -5.16 21.86 -5.5 20.5 C-6.49 20.5 -7.48 20.5 -8.5 20.5 C-8.83776684 18.7508503 -9.17003671 17.00063855 -9.5 15.25 C-9.685625 14.27546875 -9.87125 13.3009375 -10.0625 12.296875 C-10.5 9.5 -10.5 9.5 -10.5 5.5 C-9.901875 5.4175 -9.30375 5.335 -8.6875 5.25 C-6.32149494 4.6930152 -6.32149494 4.6930152 -5.1875 2.4375 C-3.5 0.5 -3.5 0.5 0 0 Z " fill="#406046" transform="translate(36.5,21.5)"/>
<path d="M0 0 C1.32 0.33 2.64 0.66 4 1 C2.68 1.33 1.36 1.66 0 2 C0 2.99 0 3.98 0 5 C1.98 5 3.96 5 6 5 C6 5.33 6 5.66 6 6 C2.37 6 -1.26 6 -5 6 C-4.34 8.31 -3.68 10.62 -3 13 C1.29 13.33 5.58 13.66 10 14 C10 13.34 10 12.68 10 12 C10.66 12 11.32 12 12 12 C11.67 14.64 11.34 17.28 11 20 C7.37 20 3.74 20 0 20 C0.33 20.66 0.66 21.32 1 22 C3.8159849 22.46898963 3.8159849 22.46898963 7.0625 22.625 C8.16722656 22.69976562 9.27195312 22.77453125 10.41015625 22.8515625 C11.26480469 22.90054688 12.11945312 22.94953125 13 23 C13.33 22.01 13.66 21.02 14 20 C14.33 21.32 14.66 22.64 15 24 C9.72 24 4.44 24 -1 24 C-1.33 22.68 -1.66 21.36 -2 20 C-2.99 20 -3.98 20 -5 20 C-5.33776684 18.2508503 -5.67003671 16.50063855 -6 14.75 C-6.185625 13.77546875 -6.37125 12.8009375 -6.5625 11.796875 C-7 9 -7 9 -7 5 C-6.401875 4.9175 -5.80375 4.835 -5.1875 4.75 C-2.4033704 3.79544128 -1.56688858 2.42867729 0 0 Z " fill="#3F5F45" transform="translate(33,22)"/>
<path d="M0 0 C5.28 0 10.56 0 16 0 C16 6 16 6 15 8 C10.71 8 6.42 8 2 8 C0 4 0 4 0 0 Z " fill="#6A9672" transform="translate(28,28)"/>
<path d="M0 0 C0.99 0 1.98 0 3 0 C2.85904936 1.6254308 2.71207913 3.25034051 2.5625 4.875 C2.48128906 5.77992187 2.40007813 6.68484375 2.31640625 7.6171875 C2 10 2 10 1 12 C-2.96 12 -6.92 12 -11 12 C-11.33 11.01 -11.66 10.02 -12 9 C-8.37 9 -4.74 9 -1 9 C-0.67 6.03 -0.34 3.06 0 0 Z " fill="#699671" transform="translate(45,33)"/>
<path d="M0 0 C3.96 0 7.92 0 12 0 C12.33 0.99 12.66 1.98 13 3 C8.71 3 4.42 3 0 3 C0 2.01 0 1.02 0 0 Z " fill="#699571" transform="translate(30,37)"/>
<path d="M0 0 C2.625 0.9375 2.625 0.9375 5 2 C4.67 2.66 4.34 3.32 4 4 C2.02 4 0.04 4 -2 4 C-2 3.01 -2 2.02 -2 1 C-1.34 0.67 -0.68 0.34 0 0 Z " fill="#689470" transform="translate(35,23)"/>
</svg>
